<svg xmlns="http://www.w3.org/2000/svg" width="512" height="512" viewBox="0 0 512 512">
  <defs>
    <linearGradient id="bg" x1="0%" y1="0%" x2="100%" y2="100%">
      <stop offset="0%" style="stop-color:#0F766E"/>
      <stop offset="100%" style="stop-color:#14B8A6"/>
    </linearGradient>
  </defs>
  <rect width="512" height="512" rx="96" fill="url(#bg)"/>
  <g transform="translate(256,256) scale(1.2)">
    <path d="M140 80c0 0 0 0 0 0C120 40 80 20 40 40c-30 15-40 50-30 80c10 30 30 50 50 80c20 30 30 60 20 90c50-20 80-60 90-110c10-50-10-90-30-100z" fill="#FF8A00" transform="rotate(45)"/>
    <path d="M140 80c0 0 0 0 0 0C120 40 80 20 40 40c-30 15-40 50-30 80c10 30 30 50 50 80c20 30 30 60 20 90c50-20 80-60 90-110c10-50-10-90-30-100z" fill="#FFB347" transform="rotate(45) scale(0.8) translate(20,20)"/>
  </g>
  <text x="256" y="380" font-family="'Plus Jakarta Sans',sans-serif" font-size="64" font-weight="800" fill="white" text-anchor="middle">SR</text>
</svg>
